<svg width="27" height="28" viewBox="0 0 27 28" fill="none" xmlns="http://www.w3.org/2000/svg">
<path d="M26.7928 13.9962C26.7928 13.0731 26.7035 12.1202 26.5546 11.2269H13.6606V16.4976H21.0456C20.7479 18.195 19.7652 19.6839 18.306 20.6368L22.7132 24.0613C25.3039 21.6493 26.7928 18.1354 26.7928 13.9962Z" fill="white"/>
<path d="M13.6607 27.3369C17.3532 27.3369 20.4502 26.116 22.7133 24.0315L18.3061 20.6368C17.0852 21.4706 15.507 21.9471 13.6607 21.9471C10.0873 21.9471 7.07975 19.535 5.97795 16.319L1.45166 19.803C3.77436 24.4186 8.47932 27.3369 13.6607 27.3369Z" fill="white"/>
<path d="M5.97798 16.2892C5.41219 14.5919 5.41219 12.7456 5.97798 11.0483L1.45169 7.53442C-0.483896 11.4056 -0.483896 15.9617 1.45169 19.8031L5.97798 16.2892Z" fill="white"/>
<path d="M13.6607 5.42016C15.5963 5.39038 17.5021 6.13484 18.9017 7.47486L22.8027 3.54413C20.3311 1.22143 17.0555 -0.0292585 13.6607 0.000519716C8.47932 0.000519716 3.77436 2.91879 1.45166 7.53441L5.97795 11.0482C7.07975 7.80242 10.0873 5.42016 13.6607 5.42016Z" fill="white"/>
</svg>
