<svg width="33" height="31" viewBox="0 0 33 31" fill="none" xmlns="http://www.w3.org/2000/svg">
<path d="M16.4882 0C7.36081 0 0 5.88859 0 13.0374C0 17.6777 3.0621 21.7408 7.65525 24.0609L6.10064 29.8672C6.07133 29.9542 6.06682 30.0476 6.08762 30.1371C6.10842 30.2265 6.15371 30.3084 6.21841 30.3736C6.31276 30.4568 6.43416 30.5028 6.55996 30.5031C6.66426 30.4947 6.76322 30.4535 6.84261 30.3854L13.5321 25.8747C14.5196 26.011 15.515 26.0817 16.5118 26.0866C25.6274 26.0866 33 20.198 33 13.0374C33 5.87681 25.6039 0 16.4882 0Z" fill="white"/>
<path d="M5.77 10.9764H3.96808C3.74474 10.9829 3.52416 10.9257 3.3321 10.8115C3.24683 10.7581 3.17352 10.6876 3.11678 10.6045C3.06003 10.5214 3.02107 10.4274 3.00234 10.3286C2.99662 10.2659 2.99662 10.2029 3.00234 10.1402C2.99674 10.023 3.01951 9.90599 3.06871 9.79938C3.11792 9.69277 3.19211 9.59964 3.28499 9.5278C3.49031 9.3791 3.73814 9.30055 3.99163 9.30396H9.42097C9.64608 9.29605 9.86816 9.35777 10.0569 9.48065C10.1442 9.53171 10.2191 9.60158 10.2761 9.68508C10.3331 9.76859 10.3709 9.86368 10.3867 9.96356C10.3925 10.0223 10.3925 10.0815 10.3867 10.1402C10.3923 10.2592 10.3695 10.3778 10.3204 10.4863C10.2713 10.5948 10.1971 10.69 10.1041 10.7643C9.90373 10.9129 9.6583 10.9878 9.40919 10.9764H7.66615V17.1713C7.67323 17.3032 7.6528 17.4352 7.60617 17.5589C7.55954 17.6825 7.48772 17.7952 7.39527 17.8897C7.30661 17.98 7.20004 18.0507 7.0824 18.0974C6.96475 18.1441 6.83864 18.1655 6.71218 18.1605C6.491 18.1668 6.27451 18.0961 6.09977 17.9604C5.93341 17.8278 5.8205 17.6395 5.78178 17.4303C5.77014 17.3444 5.77014 17.2572 5.78178 17.1713L5.77 10.9764Z" fill="#25E2B6"/>
<path d="M10.9071 9.76319C10.9589 9.56938 11.0806 9.40156 11.2487 9.29207C11.4278 9.19055 11.6319 9.14158 11.8375 9.15075H12.2851C12.5033 9.14292 12.7194 9.19594 12.9093 9.30386C13.1105 9.43914 13.2534 9.64513 13.3097 9.88093L15.6652 16.5351C15.7262 16.7087 15.7773 16.8858 15.8183 17.0652C15.8223 17.1397 15.8223 17.2144 15.8183 17.2889C15.8223 17.4037 15.8011 17.518 15.7564 17.6237C15.7116 17.7295 15.6443 17.8243 15.5592 17.9013C15.4767 17.9859 15.3776 18.0526 15.2682 18.0972C15.1588 18.1417 15.0413 18.1632 14.9232 18.1604C14.7415 18.1785 14.5591 18.1349 14.4053 18.0366C14.2514 17.9383 14.1352 17.7911 14.0752 17.6187L13.5806 16.1701H10.4832L9.98851 17.6187C9.93 17.7945 9.81233 17.9446 9.65556 18.0434C9.49879 18.1422 9.31261 18.1835 9.12876 18.1604C8.92961 18.1656 8.73453 18.1033 8.57522 17.9837C8.42001 17.8603 8.31529 17.6845 8.28079 17.4892C8.27454 17.4226 8.27454 17.3555 8.28079 17.2889C8.26057 17.172 8.26057 17.0526 8.28079 16.9357C8.28079 16.8061 8.36323 16.6647 8.41034 16.5351L10.9071 9.76319ZM12.0849 11.3061L10.966 14.8393H13.1919L12.0849 11.3061Z" fill="#25E2B6"/>
<path d="M16.0884 10.1403C16.0765 9.87604 16.1696 9.61777 16.3475 9.42194C16.438 9.33072 16.5465 9.25942 16.6662 9.21276C16.7859 9.16611 16.9141 9.145 17.0424 9.15094C17.263 9.14837 17.4783 9.21881 17.6548 9.35121C17.8184 9.48936 17.927 9.68152 17.961 9.89292C17.9726 9.97495 17.9726 10.0583 17.961 10.1403V16.3352H21.1998C21.4243 16.3323 21.6449 16.3935 21.8357 16.5118C21.9215 16.5646 21.9952 16.635 22.052 16.7182C22.1088 16.8014 22.1475 16.8956 22.1655 16.9947C22.1655 16.9947 22.1655 17.1125 22.1655 17.1714C22.1711 17.2886 22.1483 17.4055 22.0991 17.5121C22.0499 17.6187 21.9757 17.712 21.8829 17.7838C21.6775 17.9325 21.4297 18.0109 21.1762 18.0075H17.1955C16.942 18.0238 16.69 17.9578 16.4771 17.8192C16.2867 17.6768 16.1598 17.4653 16.1238 17.2303C16.1151 17.1009 16.1151 16.971 16.1238 16.8416L16.0884 10.1403Z" fill="#25E2B6"/>
<path d="M22.3772 10.1404C22.3702 9.87689 22.4627 9.62039 22.6363 9.42202C22.8128 9.26163 23.0393 9.16691 23.2774 9.15404C23.5156 9.14117 23.7509 9.21086 23.9436 9.35129C24.1108 9.48822 24.2235 9.6803 24.2616 9.893C24.2674 9.97534 24.2674 10.0581 24.2616 10.1404V13.0258L27.2413 9.58678C27.3561 9.46946 27.478 9.35943 27.6064 9.25712C27.7273 9.18509 27.866 9.14827 28.0068 9.15102C28.2126 9.1499 28.4139 9.21155 28.5839 9.32771C28.6639 9.38163 28.7323 9.45121 28.785 9.53215C28.8376 9.61309 28.8733 9.70376 28.8901 9.79883C28.8948 9.82215 28.8948 9.84625 28.8901 9.86957C28.8844 9.89675 28.8844 9.92476 28.8901 9.95194C28.8897 10.0759 28.8572 10.1976 28.7959 10.3053C28.7334 10.4193 28.6583 10.5259 28.5721 10.6232L26.6171 12.7667L28.9725 16.4177V16.5354C29.0948 16.7042 29.1902 16.891 29.2552 17.0891V17.1479C29.2688 17.2843 29.2491 17.4221 29.1979 17.5493C29.1466 17.6764 29.0652 17.7892 28.9608 17.878C28.7643 18.0265 28.5239 18.1054 28.2777 18.1019C28.1141 18.1086 27.9515 18.072 27.8066 17.9958C27.6497 17.8906 27.5205 17.7492 27.4297 17.5836L25.2391 14.0504L24.1909 15.1458V17.1125C24.198 17.376 24.1055 17.6325 23.9318 17.8309C23.8388 17.9219 23.7281 17.9929 23.6065 18.0395C23.485 18.0861 23.3552 18.1073 23.2252 18.1019C23.0079 18.1064 22.7957 18.0356 22.6246 17.9016C22.4582 17.769 22.3453 17.5809 22.3066 17.3717C22.2949 17.2857 22.2949 17.1985 22.3066 17.1125L22.3772 10.1404Z" fill="#25E2B6"/>
</svg>
