<svg width="100" height="33" viewBox="0 0 100 33" fill="none" xmlns="http://www.w3.org/2000/svg">
<path d="M54.6667 7.16669C56.5394 7.16669 57.4757 7.16669 58.1483 7.6161C58.4394 7.81066 58.6894 8.06066 58.884 8.35183C59.3334 9.02443 59.3334 9.96074 59.3334 11.8334V24.5C59.3334 27.0142 59.3334 28.2713 58.5524 29.0523C57.7713 29.8334 56.5142 29.8334 54.0001 29.8334H46.0001C43.4859 29.8334 42.2288 29.8334 41.4478 29.0523C40.6667 28.2713 40.6667 27.0142 40.6667 24.5V11.8334C40.6667 9.96074 40.6667 9.02443 41.1162 8.35183C41.3107 8.06066 41.5607 7.81066 41.8519 7.6161C42.5245 7.16669 43.4608 7.16669 45.3334 7.16669" stroke="#020202" stroke-width="2.47"/>
<path d="M46 7.16667C46 5.69391 47.1939 4.5 48.6667 4.5H51.3333C52.8061 4.5 54 5.69391 54 7.16667C54 8.63943 52.8061 9.83333 51.3333 9.83333H48.6667C47.1939 9.83333 46 8.63943 46 7.16667Z" stroke="#25E2B6" stroke-width="2.47"/>
<path d="M46 16.5L54 16.5" stroke="#25E2B6" stroke-width="2.47" stroke-linecap="round"/>
<path d="M46 21.8333L51.3333 21.8333" stroke="#25E2B6" stroke-width="2.47" stroke-linecap="round"/>
</svg>
