<svg width="100" height="33" viewBox="0 0 100 33" fill="none" xmlns="http://www.w3.org/2000/svg">
<path d="M36.6062 25.1643C36.8719 27.5401 38.7703 29.4376 41.1451 29.7125C43.9041 30.0319 46.7562 30.35 49.675 30.35C52.5938 30.35 55.4459 30.0319 58.2049 29.7125C60.5796 29.4376 62.4781 27.5401 62.7438 25.1643C63.0509 22.4183 63.35 19.5798 63.35 16.675C63.35 13.7702 63.0509 10.9317 62.7438 8.18567C62.4781 5.80985 60.5796 3.91237 58.2049 3.63744C55.4459 3.31804 52.5938 3 49.675 3C46.7562 3 43.9041 3.31804 41.1451 3.63744C38.7703 3.91237 36.8719 5.80985 36.6062 8.18567C36.299 10.9317 36 13.7702 36 16.675C36 19.5798 36.299 22.4183 36.6062 25.1643Z" fill="#25E2B6" stroke="#020202" stroke-width="2.475"/>
<circle cx="50" cy="17" r="5.5" fill="white" stroke="#020202" stroke-width="3"/>
<circle cx="42" cy="9" r="2" fill="#020202"/>
</svg>
