<svg width="100" height="33" viewBox="0 0 100 33" fill="none" xmlns="http://www.w3.org/2000/svg">
<path d="M37.4021 8.17067C35.8543 12.0402 35.8674 22.7385 36.1404 27.9783C36.2002 29.1266 37.1587 29.9939 38.3086 29.9939H52.1635C53.3134 29.9939 54.272 29.1266 54.3318 27.9783C54.6047 22.7385 54.6178 12.0402 53.07 8.17067C52.1574 6.95379 49.905 4.44683 47.1627 2.59205C45.9956 1.80265 44.4766 1.80265 43.3094 2.59205C40.5671 4.44683 38.3148 6.95379 37.4021 8.17067Z" fill="white" stroke="#020202" stroke-width="2.475" stroke-linecap="round" stroke-linejoin="round"/>
<path d="M54.1866 14.326H59.2418C61.0227 14.326 62.5548 15.1948 62.8856 16.9447C63.393 19.6294 63.7234 24.1831 63.1423 29.994H52.1635C53.3134 29.994 54.2719 29.1267 54.3317 27.9783C54.5077 24.5992 54.5757 18.9499 54.1866 14.326Z" fill="#25E2B6" stroke="#020202" stroke-width="2.475" stroke-linecap="round" stroke-linejoin="round"/>
<path d="M44.1168 18.243H46.3551" stroke="#020202" stroke-width="2.475" stroke-linecap="round" stroke-linejoin="round"/>
<path d="M45.236 29.9999V24.9578" stroke="#020202" stroke-width="2.475" stroke-linecap="round" stroke-linejoin="round"/>
<path d="M44.1168 11.5281H46.3551" stroke="#020202" stroke-width="2.475" stroke-linecap="round" stroke-linejoin="round"/>
</svg>
