<svg width="100" height="34" viewBox="0 0 100 34" fill="none" xmlns="http://www.w3.org/2000/svg">
<path d="M43.4681 25.4817H42.1077V12.7745H43.4681L48.8705 3.40044C49.3699 2.53395 50.2939 2 51.294 2C52.9929 2 54.2995 3.50209 54.0641 5.18461L53.5432 8.90887H57.964C59.8968 8.90887 63.7624 10.8417 63.7624 14.7072C63.7624 18.5728 59.8757 27.4145 55.7642 27.4145C50.3524 27.4145 45.723 26.126 43.4681 25.4817Z" fill="white"/>
<path d="M43.4681 25.4817H42.1077V12.7745H43.4681L48.8705 3.40044C49.3699 2.53395 50.2939 2 51.294 2C52.9929 2 54.2995 3.50209 54.0641 5.18461L53.5432 8.90887H57.964C59.8968 8.90887 63.7624 10.8417 63.7624 14.7072C63.7624 18.5728 59.8757 27.4145 55.7642 27.4145C50.3524 27.4145 45.723 26.126 43.4681 25.4817Z" stroke="#020202" stroke-width="2.475" stroke-linecap="round" stroke-linejoin="round"/>
<path d="M36 12.2721C36 10.5855 37.3673 9.2182 39.0539 9.2182C40.7405 9.2182 42.1077 10.5855 42.1077 12.2721V25.0428C42.1077 26.7294 40.7405 28.0967 39.0539 28.0967C37.3673 28.0967 36 26.7294 36 25.0428V12.2721Z" fill="#25E2B6" stroke="#020202" stroke-width="2.475" stroke-linejoin="round"/>
</svg>
