<svg width="100" height="33" viewBox="0 0 100 33" fill="none" xmlns="http://www.w3.org/2000/svg">
<path d="M37.8109 28.9395C38.7013 28.7806 39.6138 28.4385 40.5871 28.1271C42.0915 27.6457 43.5956 27.098 44.9762 26.7607C45.2193 26.7013 45.473 26.7054 45.7163 26.7644L54.6933 28.9397C56.173 29.2636 57.6403 28.6519 59.2804 28.1271C60.2931 27.803 61.3056 27.4489 62.2805 27.1492C63.2978 26.8364 64.0399 25.9163 64.0399 24.852V5.92264C64.0399 4.85835 63.2852 3.94321 62.2249 4.03513C61.046 4.13734 59.7853 4.44201 58.8868 4.67401C57.7594 4.9651 56.4545 5.5834 55.199 6.14234C54.8714 6.28816 54.5048 6.31904 54.1563 6.2346L45.3466 4.0998C43.8669 3.77597 41.5917 4.31299 40.1935 4.67401C39.3201 4.89952 38.3402 5.32141 37.3592 5.75995C36.5348 6.12852 36 6.94931 36 7.8524V27.1169C36 28.1812 36.7632 29.1266 37.8109 28.9395Z" fill="#25E2B6" stroke="#020202" stroke-width="2.475" stroke-linejoin="round"/>
<path d="M54.6779 28.936L45.8541 26.7978C45.6873 26.7574 45.5169 26.7356 45.3466 26.7344V4.38729C45.3466 4.29177 45.3526 4.19721 45.3641 4.10406L53.9562 6.18612C54.1989 6.24493 54.448 6.26294 54.6932 6.24014V28.669C54.6932 28.7588 54.688 28.848 54.6779 28.936Z" fill="white" stroke="#020202" stroke-width="2.475" stroke-linejoin="round"/>
<path d="M44.534 17C42.8673 18 39.634 20.5 40.034 22.5C40.534 25 44.0339 25.5 50.0339 21.5C56.0339 17.5 57.5339 19.5 60.5339 20.5" stroke="black" stroke-width="2" stroke-linecap="round" stroke-dasharray="3 3"/>
<path d="M45.9414 14.2331C47.39 12.911 50 10.0988 50 7C50 4.23858 47.7614 2 45 2C42.2386 2 40 4.23858 40 7C40 10.0988 42.61 12.911 44.0586 14.2331C44.5991 14.7264 45.4009 14.7264 45.9414 14.2331Z" fill="white" stroke="#020202" stroke-width="2.475" stroke-linecap="round" stroke-linejoin="round"/>
<path d="M45 9C46.1046 9 47 8.10457 47 7C47 5.89543 46.1046 5 45 5C43.8954 5 43 5.89543 43 7C43 8.10457 43.8954 9 45 9Z" fill="#020202"/>
</svg>
