<svg width="100" height="33" viewBox="0 0 100 33" fill="none" xmlns="http://www.w3.org/2000/svg">
<path d="M45.2162 20.6645C45.1465 19.8737 44.5333 19.2301 43.748 19.1145C42.7734 18.9712 41.7649 18.8252 40.7323 18.8252C39.6998 18.8252 38.6913 18.9712 37.7167 19.1145C36.9314 19.2301 36.3182 19.8737 36.2484 20.6645C36.1301 22.0058 36 23.4 36 24.8308C36 26.7536 36.3605 30.6399 36.3605 30.6399L45.1042 30.6399C45.1042 30.6399 45.4647 26.7536 45.4647 24.8308C45.4647 23.4 45.3345 22.0058 45.2162 20.6645Z" fill="#25E2B6" stroke="#020202" stroke-width="2.475" stroke-linejoin="round"/>
<path d="M64.4363 20.6645C64.3666 19.8737 63.7534 19.2301 62.968 19.1145C61.9935 18.9712 60.985 18.8252 59.9524 18.8252C58.9199 18.8252 57.9114 18.9712 56.9368 19.1145C56.1514 19.2301 55.5383 19.8737 55.4685 20.6645C55.3502 22.0058 55.2201 23.4 55.2201 24.8308C55.2201 26.7536 55.5806 30.6399 55.5806 30.6399L64.3243 30.6399C64.3243 30.6399 64.6848 26.7536 64.6848 24.8308C64.6848 23.4 64.5546 22.0058 64.4363 20.6645Z" fill="#25E2B6" stroke="#020202" stroke-width="2.475" stroke-linejoin="round"/>
<path d="M59.7304 13.4941C59.471 10.7102 57.2405 8.61139 54.4612 8.30617C52.8152 8.12541 51.1276 7.97193 50.1427 7.97193C49.2158 7.97193 47.6667 8.10785 46.1156 8.27451C43.1954 8.58828 40.9045 10.8799 40.784 13.8145C40.5943 18.4353 40.823 25.3952 43.2525 30.6399L57.0329 30.6399C60.2297 25.9071 60.182 18.342 59.7304 13.4941Z" fill="#25E2B6" stroke="#020202" stroke-width="2.475" stroke-linejoin="round"/>
<path d="M40.7542 17.8894C40.7342 17.1713 40.7289 16.4743 40.7346 15.8069C40.7695 11.6913 43.9948 8.42553 48.0963 8.08241C48.9019 8.01501 49.621 7.97192 50.1428 7.97192C50.7514 7.97192 51.6284 8.03054 52.5981 8.11798C56.5003 8.46986 59.6467 11.4535 59.8718 15.3651C59.9143 16.1046 59.943 16.8821 59.9505 17.6836C59.4017 17.9867 58.7887 18.1862 58.1389 18.2553C55.5526 18.5305 52.879 18.8049 50.1427 18.8049C47.4064 18.8049 44.7328 18.5305 42.1465 18.2553C41.6577 18.2033 41.1897 18.0776 40.7542 17.8894Z" fill="white" stroke="#020202" stroke-width="2.475" stroke-linejoin="round"/>
<path d="M50.3424 16.7876L50.3424 20.8224" stroke="#020202" stroke-width="2.475" stroke-linecap="round" stroke-linejoin="round"/>
<path d="M45.7959 8.64585V7.04654C45.7959 4.53556 47.8315 2.5 50.3424 2.5V2.5C52.8534 2.5 54.889 4.53555 54.889 7.04653V8.64585" stroke="#020202" stroke-width="2.475" stroke-linejoin="round"/>
</svg>
